<?xml version="1.0" encoding="UTF-8"?><svg id="Layer_2" xmlns="http://www.w3.org/2000/svg" xmlns:xlink="http://www.w3.org/1999/xlink" viewBox="0 0 269.318 269.318"><defs><style>.cls-1{fill:none;}.cls-2{clip-path:url(#clippath);}.cls-3{fill:#00b1a9;}.cls-4,.cls-5{fill:#fff;}.cls-6{clip-path:url(#clippath-1);}.cls-7{clip-path:url(#clippath-4);}.cls-8{clip-path:url(#clippath-3);}.cls-9{clip-path:url(#clippath-2);}.cls-5{fill-rule:evenodd;}</style><clipPath id="clippath"><rect class="cls-1" x="9.823" y="9.823" width="249.469" height="249.469"/></clipPath><clipPath id="clippath-1"><rect class="cls-1" x="37.036" y="111.63" width="23.703" height="48"/></clipPath><clipPath id="clippath-2"><rect class="cls-1" x="37.036" y="138.297" width="31.703" height="44"/></clipPath><clipPath id="clippath-3"><rect class="cls-1" x="74.073" y="199.63" width="121.333" height="22.896"/></clipPath><clipPath id="clippath-4"><rect class="cls-3" x="6.557" y="106.448" width="255.599" height="65.438"/></clipPath></defs><g id="Layer_1-2"><path class="cls-3" d="m134.656,0C60.292,0,0,60.292,0,134.661s60.292,134.656,134.656,134.656,134.661-60.286,134.661-134.656S209.026,0,134.656,0"/><g class="cls-2"><path class="cls-4" d="m134.557,259.292c-68.76,0-124.734-55.974-124.734-124.734S65.797,9.823,134.557,9.823s124.734,55.979,124.734,124.734-55.974,124.734-124.734,124.734Zm0-247.625c-67.776,0-122.891,55.115-122.891,122.891s55.115,122.891,122.891,122.891,122.891-55.115,122.891-122.891S202.333,11.667,134.557,11.667Z"/></g><path class="cls-4" d="m200.245,191.953c-5.906,1.578-12.203,2.089-17.943,4.042,9.719-8.318,9.161-21.177,15.641-30.969,2.068-2.771,3.771-5.677,6.177-8.307-3.938,7.891-2.229,18.13-6.76,25.792-1.74,3.042-4.234,5.995-6.995,8.38.901-.031,1.693-.813,2.484-1.328,7.354-7.328,16.964-9.375,24.922-15.328,3.188-2.536,6.109-5.859,7.51-9.448-1.516,12.151-13.63,23.547-25.042,27.172l.005-.005Z"/><path class="cls-4" d="m226.745,142.745c-3.599,5.109-7.953,9.87-11.276,15.063.37-4.115.859-9.172-.745-13.068-2.781-8.391-5.229-16.906-6.016-26.115l.109-3.521c2.094,9.401,11.349,15.865,10.766,26.411.208,2.557-.583,4.729-1.063,6.979l.161.167.417-.469c1.37-5.172,2.063-10.609,4.198-15.438,3.031-6.948,6.818-13.958,5.276-22.349,4.604,9.901,3.208,23.109-1.828,32.344v-.005Z"/><path class="cls-4" d="m221.063,89.464c6.068,8.208,7.401,21.292,2.979,30.708-1.646,3.99-2.813,8.24-3.458,12.656-.307-.76-.38-1.786-.656-2.635-2.411-9.214-11.146-15.781-14.74-24.474-1.135-2.839-2.109-5.776-2.646-8.859,3.839,7.083,13.297,10.745,15.875,18.552,1.052,1.974.995,4.438,1.651,6.563.135,0,.276-.104.276-.24-1.135-8.042-.792-16.458.302-24.401-.063-4.302-.484-8.479-2.88-11.807,1.542.896,2.234,2.609,3.302,3.943l-.005-.005Z"/><path class="cls-4" d="m216.781,87.891c1.594,7.193-.734,14.198.729,21.458l-.052.063c-3.922-7.693-12.245-11.323-17.974-17.484-3.318-3.651-4.76-8.109-5.589-12.823,3.281,7.896,12.135,9.635,17.219,16.292,1.703,1.531,2.255,3.656,3.354,5.396l.177-.172c-2.922-6.229-3.901-13.24-5.943-19.88-1.021-2.88-3.047-5.708-5.766-7.526,6.667,1.365,12.453,8.318,13.839,14.677h.005Z"/><path class="cls-4" d="m198.943,71.391c5.026,4.49,7.297,10.302,8.766,16.328l.828,1.911c-7.292-5.234-13.922-12.276-18.578-19.708l-5.682-5.745c5.005,2.115,10.396,3.38,14.672,7.214h-.005Z"/><path class="cls-4" d="m83.734,65.13c-5.047,4.411-8.542,9.99-12.281,15.193-3.354,4.146-7.646,6.875-11.448,10.438,2.052-4.245,2.13-9.318,5.042-13.214,4.141-7.214,11.823-9.75,18.688-12.422v.005Z"/><path class="cls-4" d="m56.151,80.495c2.453-3.042,5.563-5.156,9.063-6.052-6.797,4.661-6.354,13.005-8.505,19.948-.688,2.563-1.88,4.927-2.474,7.557l.172.141c1.13-2.974,3.12-5.786,5.599-8.214,4.823-4.443,11.964-7.214,14.328-13.792-.109,9.141-7.75,16.323-15.057,21.458-3.016,2.641-5.922,5.646-7.578,9.042-.167-2.307.339-4.62.177-7.094-.792-7.974-1.37-17.083,4.281-22.995h-.005Z"/><path class="cls-4" d="m42.406,107.776c-.203-8.083,3.156-14.682,7.896-20.708.135-.068.234-.203.411-.172-5.214,7.906-.901,17.87-1.141,26.865l-.688,9.208c.104.068.104.344.344.234.313-1.026.375-2.12.583-3.177,1.229-7.427,7.693-12.698,13.333-17.828,1.208-1.344,2.271-2.708,2.891-4.281-.458,3.698-1.62,7.427-3.156,10.849-4.396,8.552-12.51,15.568-13.995,25.354-.719-9.375-7.115-16.385-6.479-26.339v-.005Z"/><g class="cls-6"><path class="cls-4" d="m38.458,119.271c.583-2.531,1.031-5.146,2.135-7.469-2.089,10.688,5.109,18.391,7.474,27.656.99,3.464,1.229,7.182,2.646,10.438.13.068.245-.068.328-.172-3.521-9.844,1.557-18.984,6.661-26.693,1.24-2.089,1.953-4.411,2.573-6.813.542,4.453-.589,9.583-1.234,14.208-1.24,5.885-3.094,11.464-4.703,17.172-1.063,3.568-.786,7.594-.24,11.333l-.51-.406c-3.74-6.885-11.146-12.255-13.349-19.776-1.813-5.995-3.016-12.943-1.786-19.479h.005Z"/></g><g class="cls-9"><path class="cls-4" d="m38.125,140.146c.823,11.328,13.031,17.313,18.688,26.693,1.339,1.917,2.5,4.042,4.286,5.646-.276-1.208-1.406-2.224-1.818-3.458-1.979-3.932-2.703-8.62-2.229-13.375.552-5.786,2.979-11.156,2.052-17.24,4.974,10.698,3.464,24.052,6.245,35.641.724,2.536,2.198,4.802,3.161,7.224-10.219-6.943-24.146-13.547-28.677-26.276-1.917-4.385-2.13-9.818-1.714-14.854h.005Z"/></g><path class="cls-4" d="m44.224,166.161c5.698,12.859,19.958,13.922,29.521,21.755,1.76,1.557,3.604,2.88,5.594,3.802l.099-.104c-2.193-1.979-4.734-4.234-6.271-6.802-5.599-7.771-3.63-18.651-7.823-27.005,3.807,4.547,7.276,9.271,9.573,14.438,3.422,8.422,4.729,17.943,12.646,24.307-8.568-2.818-18.609-2.031-26.172-7.297-8.245-5.063-15.62-13.656-17.167-23.094Z"/><path class="cls-4" d="m58.859,190.151c9.13,10.365,24.052,6.906,36.214,9.62,1.719.229,3.292.917,5.115.641-1.453-.917-3.464-.818-5.047-1.651-9.531-3.344-10.932-13.646-16.109-20.589,6.615,4.38,12.172,10.292,18.276,16.021,4.38,3.833,9.661,5.599,15.219,6.729-1.333.49-3.083.354-4.521.729-9.99,2.453-21.089,6.458-31.688,2.87-6.896-2.156-13.995-7.594-17.469-14.37h.01Z"/><g class="cls-8"><path class="cls-4" d="m182.802,214.307c-10.292,3.833-21.031-.177-29.068-6.26-3.255-2.063-6.12-5.036-10.328-4.771-1.526-.031-3,.047-4.297.417,7.807,3.63,15.057,8.63,21.693,15.021-1.12,1.276-2.568,2.464-3.932,3.563-6.391-6.87-13.464-13.484-21.391-17.349-1.552.203-3.026,1.13-4.427,1.88-6.448,4.073-12.828,9.307-17.625,15.719l-4.12-3.396c6.578-6.641,13.854-11.807,21.813-15.5-7.823-2.474-12.927,4.063-18.865,7.391-6.917,4.823-16.865,7.083-25.224,3.76-4.495-1.703-8.854-4.208-12.109-8.286,6.583,4.526,16.38,5,23.859,2.063,10.042-4.349,20.474-9.859,32.578-7.224,1.891.036,3.724,1.911,5.51.313,8.995-2.328,19.182-.729,26.927,3.375l7.979,3.198c7.422,2.734,17.016,1.979,23.375-2.531-3.266,4.073-7.734,6.984-12.344,8.63l-.005-.01Z"/></g><path class="cls-4" d="m193.823,203.693c-11.552,4.354-23.177-.99-34.245-2.776l-2.13-.271v-.068c5.292-1.198,10.427-2.771,14.641-6.568,6.208-5.953,11.729-12.078,18.62-16.771-5.109,6.542-5.651,15.849-14.094,20.052-2.089,1.365-4.724,1.609-6.88,2.641,3.073.068,5.891-1.031,8.932-1.344,11.318-1.771,24.271.047,32.208-9.578-2.948,6.708-10.328,12.323-17.052,14.677v.005Z"/><path class="cls-4" d="m214.813,171.255c-4.563,2.979-9.188,5.745-13.568,9.13v-.417c6.714-11.135,3.432-26.438,7.568-38.698l1.542-4.104c-.859,7.635,2.464,14.104,2.229,21.766-.234,4.63-1.745,8.734-4.182,12.432h.411c3.292-4.313,5.859-8.901,9.703-13.01,5.969-5.745,12.042-11.635,12.823-19.604,2.026,13.307-5.453,24.979-16.526,32.51v-.005Z"/><path class="cls-5" d="m133.771,142.25h2.073v51.87h-2.073v-51.87Z"/><path class="cls-5" d="m122.536,137.156l1.464,1.464-36.776,36.651-1.464-1.464,36.776-36.651Z"/><path class="cls-5" d="m119.026,126.354l-.005,2.063-51.974-.063v-2.068l51.979.068Z"/><path class="cls-5" d="m123.958,116.349l-1.464,1.458-36.745-36.682,1.464-1.464,36.745,36.688Z"/><path class="cls-5" d="m135.823,112.089h-2.073l.052-51.88,2.063.005-.042,51.875Z"/><path class="cls-5" d="m146.219,117.036l-1.458-1.464,36.802-36.63,1.458,1.458-36.802,36.635Z"/><path class="cls-5" d="m150.24,128.578l-.005-2.068,51.969-.063.005,2.068-51.969.063Z"/><path class="cls-5" d="m144.234,139.135l1.464-1.458,36.781,36.646-1.458,1.458-36.786-36.646Z"/><path class="cls-5" d="m154.188,75.474c28.63,10.677,43.177,42.531,32.474,71.099-10.698,28.568-42.615,43.089-71.234,32.406-28.625-10.677-43.172-42.531-32.474-71.099s42.615-43.083,71.234-32.406Zm-.839,2.24c27.385,10.219,41.302,40.693,31.068,68.026s-40.771,41.224-68.156,31.005c-27.38-10.214-41.297-40.688-31.063-68.021s40.771-41.229,68.156-31.01h-.005Z"/><path class="cls-5" d="m149.75,87.333c22.068,8.229,33.281,32.786,25.031,54.807-8.245,22.021-32.849,33.214-54.911,24.984-22.063-8.234-33.281-32.786-25.031-54.807,8.25-22.026,32.854-33.219,54.911-24.984Zm-.839,2.255c20.818,7.766,31.401,30.932,23.62,51.714s-31,31.339-51.818,23.573-31.401-30.938-23.62-51.714c7.786-20.786,30.995-31.344,51.818-23.573Z"/><path class="cls-5" d="m145.443,98.839c15.703,5.859,23.688,23.333,17.818,39.01-5.87,15.672-23.385,23.635-39.089,17.776s-23.682-23.333-17.813-39.005c5.87-15.677,23.375-23.641,39.078-17.781h.005Zm-.771,2.057c14.563,5.432,21.964,21.641,16.521,36.177s-21.682,21.922-36.25,16.49c-14.563-5.438-21.964-21.641-16.521-36.177,5.443-14.531,21.682-21.922,36.245-16.49h.005Z"/><path class="cls-5" d="m140.599,111.776c8.547,3.188,12.891,12.703,9.698,21.234-3.198,8.531-12.729,12.87-21.276,9.677-8.552-3.188-12.896-12.703-9.698-21.234s12.729-12.865,21.276-9.677Zm-.833,2.224c7.318,2.729,11.031,10.87,8.297,18.172-2.729,7.302-10.891,11.016-18.203,8.286-7.318-2.734-11.036-10.875-8.302-18.177,2.734-7.297,10.891-11.01,18.208-8.281Z"/><path class="cls-5" d="m167.099,67.281c33.479,18.391,46.188,60.172,28.359,93.26-17.823,33.094-59.458,45.026-92.938,26.635-33.479-18.385-46.188-60.167-28.365-93.26s59.464-45.026,92.943-26.635Zm-1.167,2.177c32.26,17.724,44.51,57.99,27.328,89.875-17.177,31.885-57.302,43.391-89.568,25.667-32.266-17.719-44.51-57.984-27.333-89.87,17.172-31.896,57.302-43.396,89.568-25.672h.005Z"/><path class="cls-4" d="m175.224,159.292c.042.354-.083,1.229.083,1.427.172.271.813.214,1.094.12.755-.286,1.51-1.286,1.865-2.036.245-.38.411-.828.359-1.328l-.531-1.604c-.135-.563-.313-1.552-.917-1.786.057-.146.25-.38.224-.594-.135-.635-1.198-.469-1.578-.005-.193.234-.135.734-.177,1.026-.01.573-.172,1.74-.401,2.26-.234.526-.88,1.229-.885,1.807.042.422.5.667.865.703v.01Zm-35.339-4.453l.188.411c.01.073.094.208.167.203.479.458,1.156-.609.349-.75-.073.005-.219-.052-.286.026-.141.005-.281.016-.417.104v.005Zm.531-1.057c-.328.318-.443.542.083.781l-.089-.781h.005Zm-8.583-6.276c-.521.479-.484.188-.75.359-.198.156-.036.359-.219.661-.052.151-.26.24-.245.385-.047.219.182.339.401.391.292.047,1.146-.026,1.417-.198.26-.24.156-.516.281-.745.063-.073.188-.229.255-.307.026-.359-.734-.797-1.141-.547Zm20.609-2.203l.073.714-.078.583c.771-.146,1.25-.401,1.938-.677.208-.094.62-.276.776-.146.229.125.109.349.052.5-.109.297-.557.839-.745,1.073-.578.625-1.432.703-2.156,1.344-.385.396-.49.76-.88,1.156s-.667.49-.865.651c-.193.234-.031.365-.438.615l.229-.521c-.219-.052-.505-.026-.672-.229-.094-.208-.115-.422-.068-.641.099-.438.188-1.599.443-1.906.063-.078.62-.271.823-.365l-.094.443c.214-.021.568-.052.703-.135.349-.104.698-.854.88-1.156l-.969.37c.167-.422.646-1.333,1.042-1.656l.005-.016Zm-19.109,2.146c-.146.661.26.406.505.672.156.13.182.344.203.557l-.563.125-.245.38-.318.385.964.276c-.484.182-.776.141-1.083.599l1.208-.109c.792,0,1.385.161,2.13-.26l-.161-.13.219-.667-.536-.313-.193-.411-.901-1.073-.302-.115c.255-.313.771-.859.036-1.01l-.365-.036.318-.391c-.438-.031-.797-.073-1.125.245-.38.458-.385,1.036.214,1.271l-.005.005Zm-.417-9.234l-.016.505-.167-.203.016.865c.13.495.682.302.807.146.135-.083.177-.375.161-.521-.016-.141-.104-.276-.182-.339-.151-.063-.219-.057-.365-.042l-.042-.427-.208.021-.005-.005Zm-58.667,4.536c-.026,1.078.255,1.052.5,1.964.125.495-.073.656.318,1.625.188.417.307.839.755,1.01-.13-1.208-.276-1.917-.682-3.026-.292-.693-.516-.745-.75-1.589l-.141.01v.005Zm98.349-11.828c-.339.172-.458.401-.422.755-.031.365.286.62.63.516.484-.182.568-1.417-.208-1.271Zm-67.292-.156c-.177.38-.208.74.177.995-.047-.359.057-.729-.182-.995h.005Zm21.021.349l.24.193c.521-.479.635-.776,1.016-1.24.318-.391.531-.406.729-.568.125-.156.109-.302.161-.521.109-.297.318-.385.26-.885.026-.432-.255-1.052-.745-.938l-.109-.349c-.214.016-.563.12-.76.281s-.099.443-.359.677c-.318.391-.87.583-1.005.667-.208.089-.115.297-.448.542-.464.333-.771.141-1.052.24-.349.104-.865.651-1.125.891-.38.464-.49.766-.651,1.281-.057.146-.177.375-.089.51.083.135.297.115.432.031.281-.094.891-.438,1.109-.385.214-.021.302.12.453.177.219.052.359.036.51.094.151.063.318.26.474.391.38.182.76-.281.87-.578.068-.146.125-.292.099-.505l-.01-.005Zm.411-5.5l.01.073-.078-.068.068-.005Zm.63.516c.193.411.885.854,1.281,1.177.13-.083.198-.161.25-.307.177-.375.099-1.089-.281-1.271-.224-.125-.505-.026-.708.063-.01-.068-.104-.276-.182-.344-.552-.521-1.255.979-.354.682h-.005Zm-2.974-.953c.479.458.49.531,1.13.474-.099.438-.672,1.135-1.135.818-.307-.188-.339-.469-.49-.531-.229-.12-.245.385-.37.536-.307.531-.813.505-.859,1.375l.271-.172c.271.552.781-.068,1.12-.245-.063.078-.188.234-.245.385-.052.219.188.411.396.323.203-.094.448-.474.646-.635.203-.161.271-.167.479-.255.198-.161.458-.401.656-.563.594-.484.625-.203.833-.938-.016-.141.047-.219.031-.365-.281-.62-1.302-.099-1.38-.161l-.443-.104c-.146-.063-.422.031-.635.052l-.005.005Zm3.286-.151l-.354.031.094.203c.422-.109.703-.135.724-.635-.359.031-.427.036-.464.396v.005Zm-22.422,1.359l-.328,1.609.146.708.297,1.411c.182-.307.51-1.271.542-1.63l.083-.583c.026-.432.078-.583-.109-.995l-.458.401-.031-.932-.141.01Zm23.161-1.859c-.042-.427.036-.365.396-.323l-.005-.719c-.203.089-.49.115-.688.276-.318.391-.276.745.302.76l-.005.005Zm-2.115-.958l.245.266c.49-.115.646.016,1.089.12l-.172-.276.182-.302c.427-.036.464-.401.281-.745-.078-.063-.229-.12-.307-.188-.766-.432-.839.219-1.021.526l-.292.594-.005.005Zm1.844-.234c.141-.01.286-.026.417-.109.266-.24.115-.943-.115-1.068-.219-.052-.339.172-.323.318l-.052.219.042.354.026.286h.005Zm-22.885,1.76c.255-.307.344-.818.375-1.182-.474.255-.432.682-.375,1.182Zm2.521-4.609c.068.641-.01,1.224-.234,1.818-.286.672-.979,1.594-1.125,2.255l-.161-.203c-.313.464-.349,1.469-.151,1.958.391-.396.479-.906.719-1.359.469-.974,1.094-1.823,1.339-2.922.042-.292.099-1.089-.078-1.359-.083-.135-.151-.125-.307-.188Zm64.823,1.885c.375-.536.474-1.62.62-2.281.339-1.542,1.052-2.25.844-4.172-.047-.427-.208-1.276-.724-1.375-.797-.073-.469.979-.516,1.198.021.214-.036.359-.094.51-.349.75-.182,1.599-.172,2.385l-.151,2.604.203,1.13h-.01Zm-11.526-12.266c.016.146.094.208.182.344l.234.198c.458.245.698-.208.526-.479-.089-.135-.38-.182-.521-.172-.146.005-.286.021-.417.104l-.005.005Zm10.646-1.24c.068.641.328,1.698.599,2.245l.63,1.167.745,2.234c.38-.469.177-1.026.052-1.516-.323-.979-.786-1.943-1.172-2.844-.266-.479-.464-.964-.859-1.286h.005Zm-3.938-1.161l-.057.797-.974-.344c-.016.505.214,1.276.615,1.672l.781.573c.63.521,1.271,1.109,1.839,1.708.495.599.516.813.693,1.083.156.13.313.26.521.172.13-.083.167-.448.219-.594l.24-.453c.104-.37-.167-.922-.349-1.266l-.469-1.031c-.198-.49-.318-.906-.646-1.313-.563-.521-.99-.484-1.578-.646l-.828-.354-.005-.005Zm-19.802.984c-.042.292-.063.729-.411.828-.073.01-.365-.036-.443-.104l-.271.818c-.125.224-.349.818-.323,1.031-.031.365.464.318.719.01.266-.24.297-.604.479-.906.297-.599.839-.865.906-1.589l-.646-.083-.01-.005Zm22.068-2.688c.214.625.359.682.708,1.229.177.344.13.563.552.453-.255-.339-.953-1.5-1.26-1.688v.005Zm-29.849,3.818c-.797-.073-.271.813-.375,1.182-.177.375-.974.948-1.365.698-.203.089-.417.109-.641.057-.219-.052-.375-.182-.589-.161l-1.135.818c-.198.161-.469.328-.755.354-.208.021-.495.047-.625.203-.198.156-.01.573.089.781l.339.474c-.698.203-.646.703-.578,1.344.042.354.177,1.635.281,1.917.109.349.573.667.943.776.234.125.594.161.807.146l.052-.87.214-.021.219.703.286-.026.885.208.156.13c.094.203-.083.578-.057.792.125.495.635.594,1.063.552-.01.578.047.427.016.792.036.354-.177.375.266,1.125.089.135.266.479.479.458.214-.016.656-.563,1.135-.818.109.349.115.422.422.609l-.104.37.813-.505c-.245,1.099-.703.854-1.203,1.542-.172.375-.063.729-.167,1.094l.078.068.271-.167.203-.094c.635-.13.141.635.156.776.021.214.172.271.323.333l-.333.245.198.484-1.281.115c-.635.13-1.161.609-1.688,1.016l.016.141.219.052-1.229.615c.37.109.854-.078,1.214-.109.349-.104.281-.026.703-.135l.229.125-.042.292,1.563.505c.375.109.641-.057.875.068.302.188.203.552.714.651.594.161,1.063-.167,1.552-.281l-.578.625.266.479.698-.203c-.516.547-.495.115-1.49.203.229.125.906.422,1.057.479.375.115.573-.052,1.094.12.443.104.979.417,1.12-.245.089.135.177.271.255.339.229.12.37.109.594.161.292.047.984.484.953.849-.063.078-.13.156-.193.234-.094-.208-.188-.417-.354-.615-.406-.469-1.031-.271-1.547-.37l-1.036-.266-.797-.073c-.432-.031-.677-.297-1.109-.26-.141.016-.344.104-.328.25.016.141.172.271.25.333.458.245.292.047.99.49.385.25.516.167.891.276l.38.182c.292.047.349-.104.641-.057.141-.01.432.031.583.094l-1.234.542-.948-.13c.188.411.266.479-.052.865l-.172-.271c-.193.229-.177.375-.365.609l-.318.385c-.057.151-.25.38-.391.396-.214.016-.458-.25-.62-.375-.302-.193-.448-.177-.797-.073.26.406.396.323.776.505.307.188,1.094.833,1.339,1.099-.073.005-.141.016-.198.161-.125.156.016.792.177.99.161.13.313.188.521.172l-.849.792c.375.109.51.026.823.286l-.708.063-.943-.703-.979-.417c.365.036.943.057,1.281-.115.609-.344.323-1.036-.151-1.422-.307-.193-.521-.172-.885-.208-.292-.047-.74-.224-1.026-.198l-.776.141.047-.219c-.219-.052-.297-.115-.5.047-.234-.198-.24-.266-.531-.313l.036.354-.323-.328-.031.359c-.177-.271-.182-.339-.484-.458l.24.911-.115.229c-.396.323-.396,1.042-.344,1.469.089.854-.099,1.083-.172,1.74-.021.505.146.703.01,1.438-.042.286-.313,1.104-.432,1.328l-.318.391-.24.448c-.12.229-.318.391-.438.62-.115.297.047.427.135.563.115.417-.188.302.313.906l-.255.307.286-.026c-.161.521.161.849.651.734.349-.104.729-.568.833-.938l.146-.016.958,1.568c.161.203.203.557.495.604s.401-.25.526-.479c.125-.156.26-.24.385-.396.177-.37-.172-.917-.135-1.281.036-.286.234-.448.271-.813-.052-.5-.427-.609-.672-.875s-.271-.547-.313-.906c-.083-.781.318-1.036.396-1.688.026-.432-.219-.698-.25-.984-.026-.214.021-.432.234-.453.495-.115.552.453.594.813l-.068.724c-.036.292-.161.516-.12.87.104.281.266.484.359.688.167.203.193.417.349.547.151.057.229.12.37.109.151.057.297.115.443.104.349-.104.708-.781,1.036-1.026.203-.161.495-.115.708-.135-.12.224-.438.615-.568.766-.266.172-.76.286-.781.719-.156.589.63.521.609,1.021-.031.365-.583-.089-.75.359-.24.448.078.708.188,1.057.021.214-.099.443-.146.661-.302.531-.552.193-.958.448-.339.172-.714.708-1.063.813-.276.094-.516-.099-.729-.078-.281.026-.521.479-.995.089-.479-.458.068-.724-.052-1.146l-.292-.693c-.401.25-.797.578-.667,1.141.198.484.672.87.422,1.25-.198.161-.625.203-.958.448-.401.25-.823,1.01-.958,1.094-.198.161-.411.177-.609.339l-.714.714-.13.156-.891-.281.052.5q-.354.031-.646-.016c-.219-.052-.656-.083-.771.214-.12.224.474.385.625.448.906.422,1.089,1.411.698,1.807-.26.234-.714.063-1.005.016-.656-.083-1.693-.354-2.339-.365-.854.073-.578.625-.745,1.073-.042.292-.313.458-.359.677-.068.078-.057.151-.047.219-.01-.068.234.844.224.771.104.281.604.234.896.281.37.109.464.318.771.505.302.115.432.031.714-.063.641-.057,1.25.245,2.198-.271.203-.089.406-.25.458-.401.193-.229.099-.438.359-.677.323-.318.958-.448,1.292-.693.26-.24.073-.651.557-.839.349-.104.734.151,1.214-.036.422-.109.875-.583,1.297-.693.427-.036.693.443,1.281.604l2.354.505c.073-.005.224.057.302.12.63.521-.276.745-.625.849-.276.094-.349.099-.635.125.083.068.089.135.167.203.302.115,1.026.193,1.292-.042.125-.156.109-.302.089-.516.276-.094.411-.177.521-.474-.021-.214-.12-.422.083-.583.125-.156.406-.182.625-.203-.333-.401-.604-.229-1.036-.266-.219-.052-.307-.188-.531-.24-.214.021-.411.182-.708.063-.224-.052-.458-.245-.682-.297-.229-.125-.813-.214-.781-.578.057-.146.12-.224.26-.24.068-.073.135-.083.208-.089l.104.281c.76-.286.51.094,1.167.182.594.161,1.292-.047,1.891.188.37.109.25.339.573.667.396.328.958.203,1.458.156-.063.078-.135.089-.13.156-.12.229.042.354.193.417.531.307,1.328-.339.646-.635l1.094-.526c-.526-.24-.792-.005-1.484-.443.354-.031.427-.042.688-.281l.042-.292,1.156-.604c-.365.609.047.427.188,1.063.354-.031.797.073,1.156.042.276-.099,1.036-.38,1.234-.542s.245-.385.443-.547l.823-.359c.333-.245.589-.557.844-.865.125-.156.255-.313.474-.26.302.12.375.828.406,1.115.094.208.198.484.219.698-.042.938-1.031,1.099-1.625,1.583-.396.323-.698.854-1.109,1.036-.531.406-2.052.974-2.75,1.177l-1.479.276c-.339.177-.734.5-.849.797-.109.297.068.641-.271.813-.339.177-1.755.375-2.12.333-.583-.089-.385-.25-1.24-.177-.786.073-1.63.219-2.438.078.125-.156.38-.469.427-.688.057-.146-.021-.214-.036-.354-.005-.073-.021-.214-.104-.281-.161-.198-.734-.146-.948-.13-.49.12-.401.255-1.182.323l-2.63.307c-1.281.115-2.302.641-2.802.682-.354.031-1.151-.042-1.526-.151-.297-.115-.615-.375-.953-.203-.349.104-.464.401-.87.583-.411.177-1.198.25-1.667.578-.464.333-.224.599-.771.859-.276.099-1.208.109-1.563.141-.792,0-1.188.323-1.875.599l-.76.286c-.281.094-.844.219-.958.443-.12.229.052.5.073.714.026.214-.021.432-.073.651-.37.536-1.328.984-1.172,1.76.125.49.417.536.969.99.724.729,1.266,1.755,2.047,2.333,1.01.698,2.469,1.578,3.719,1.823l2.167.094c1.161.109,2.052.391,3.271.354l2.682-.458c.568-.047,1.417-.198,2.01-.036.589.167.708.583,1.776.49l1.484-.203c.349-.104.63-.203,1.005-.021.917.495-.635,1.422.073,2.005.396.328,1.698.422,2.224.594.359.036,1.505.656,1.75.922.156.13.172.271.339.474.167.198.536.307.557.521.026.214-.432.615-.563.771-.391.396-1.146,1.396-.719,2.005.167.198.615.375.849.5l2.073.604c.901.349.979,1.063,1.521,1.443.391.255,1.031.198,1.536.224l2.141.526c.745.224.432.682,1.016.771,1.234.104,3.13-1,4.135-1.661l2.042-1.047c.818-.432,1.552-.932,2.292-1.427,1.396-1.057,2.536-2.453,3.229-4.026.24-.453.917-1.521.958-1.813.094-.438-.365-.682-.188-1.057.229-.526,1.161-1.255,1.38-1.849.188-.307.13-.802-.177-.99-.297-.12-.5.042-1.089-.12.448-1.188,1.255-2.339,1.932-3.406.307-.458.865-1.302.875-1.875.005-.646-.578-.667-.818-.932-.24-.198-.182-.344-.333-.406-.297-.115-.776.146-1.068.099-.214.016-.37-.109-.521-.167-.229-.125-.505-.031-.719-.01-.323-.979.349-2.76.677-3.724.635-2.073,1.49-4.161,1.182-6.359l-.328-1.698c-.094-.208-.266-.479-.542-.38-.422.109-.786,1.365-.964,1.74l-.964,1.74c-.245.38-.406.896-.729,1.214-.26.24-.677.422-1.016.594-.109-.349-.318-.26-.594-.161l-1.292.688c-.266.172-.797.578-1.156.609-.281.026-.448-.177-.87-.068-.281.026-.766.214-.99.161-.292-.047-.604-.302-.896-.349-.224-.052-.641.057-.849.146-.714.063-1.823-.266-2.563-.417.135-.083.281-.099.266-.24.104-.37-.464-.964.229-1.172l.286-.026,1.219-.036.703-.135c.365.042.458.25.958.203l1.745-.443c.714-.068,1.005.63,1.745.13.599-.411,1.167-1.828,1.38-2.495l.625-1.568.24-1.099c.271-.813.516-1.193.417-2.12l-.146-1.354c-.063-.568-.177-.99-.766-.432-.453.469-.609.99-1.339.911-.193.88-.068,2.016-.948,2.526-.333.245-.708.135-1.052.24-.208.089-.479.26-.625.198-.214.021-.375-.109-.396-.323.042-.292.521-.479.729-.568.688-.276,1.036-.38,1.547-1,.307-.458.344-.823.589-1.203.25-.313.474-.26.729-.568.188-.234.542-.984.724-1.286l.87-2.594c.422-.76,1.125-.891,1.313-1.844l.109.349c.75-.354.745-1.073.599-1.776.427-.042,1.297.026,1.646-.078l1.615-1.005c.406-.255,1.068-.745,1.167-1.182.109-.297-.354-1.266-.521-1.464-.083-.135-.161-.203-.313-.26-.37-.109-.859.005-1.13-.474-.328-.401-.698-1.807-.969-2.354-.594-1.458-.63-1.167-.906-1.719-.182-.344-.146-.703-.188-1.063-.099-.276-.266-.474-.281-.62-.031-.286.167-.448.359-.677.302-.531.255-.958.578-1.276.26-.24.495-.115.609-.339.438-.615-.62-1.099-.26-1.776.182-.302.698-.854,1.052-.885.281-.094.51.026.786-.068.266-.172.286-.672.401-.974.276-.74.714-.708.818-1.724.031-.359.047-.865-.125-1.141-.328-.401-.797-.073-.906.229-.25.38-.193.88-.151,1.302-.026.438-.104,1.016-.349,1.401-.302.531-.922.151-1.094-.12-.083-.135-.026-.286-.047-.427.01-.578-.156-.776-.01-1.438.042-.292.313-1.104.229-1.24-.026-.214-.682-.948-.844-1.146-.323-.333-.906-1.068-1.443-.734-.479.26-.38,1.182-.469,1.693-.047.224-.146.661-.359.682-.13.083-.37-.115-.526-.24-.401-.396-.646-.661-.714-1.302.219.052.813.214.854-.078-.031-.286-.37-.755-.656-.729-.292-.047-.333.245-.719-.01-.318-.26-1.016-1.417-1.349-1.818-.417-.542-1.036-.984-1.646-1.292-.37-.109-1.573-.578-1.906-.333-.135.083-.109.297-.167.448-.078-.068-.156-.13-.297-.12-.516-.094-.667.495-.698.854.01.146.042.427-.161.521-.208.089-.365-.042-.526-.172-.385-.25-.391-.323-.911-.495.099.281.203.557.375.833.417.536.703.51.635,1.234-.599-.234-1.276-.531-1.688-1l.552-.193-.016-.141c-.224-.125-1.005-.703-1.036-.984-.026-.214.26-.24.234-.453.052-.219-.177-.344-.068-.641.193-.234.604-.417.573-.698-.016-.146-.172-.271-.323-.333-.307-.188-.854-.568-1.177-.25-.26.24-.068.724-.208,1.38-.224-.052-.604-.234-.823-.281-.292-.047-.635.125-1.01-.057-.526-.167-.714-.583-1.161-.755-.828-.359-1.526-.151-2.302-.01-.354.031-.927.083-1.266.255-.271.172-.391.396-.51.62-.313.391-.943.589-.88,1.156.125.495.563.526.719.656l.453.896c-.49.115-.719-.01-1.146.031l-1.682.365c-.865.005-1.13-.474-1.661-.714-.297-.115-.51-.099-.745-.219-.234-.198-.255-.411-.333-.474-.167-.203-.896-.281-1.109-.26.016.141.026.214-.104.365-.12.229-.729.573-1.01.599-.135.083-.359.031-.51-.031l.042-.286c.031-.365-.182-.344-.458-.25-.417.109-.672.422-1.005.667.12-.224.229-.526.422-.755.26-.24.609-.344.953-.516l1.073-.672c.271-.172.682-.349.88-.51.594-.484.719-2.005.563-2.781-1.099.458-.807.5-1.552.927-.271.167-.411.182-.62.271-.172.182-.224.401-.266.62l-.026-.016Zm7.552-2.615l.703.51.531.958c.411-.182.469-.328.745-.427.135-.083,1.021.125.818-.432l-.24-.193-.047.219c-.234-.193-.552-.453-.849-.573-.302-.115-1.307-.094-1.661-.063Zm2.411.359c.995-.089.823-.359,1.396-.411.276-.099.714.005,1.01.052l-.042.292c.599.234.563-.125,1.005-.021.448.177.724.729,1.469.948.297.12.448.177.719.01.172.271.245.266.526.24.036-.365.24-.453.146-.661s-.844-.5-.911.224c-.25-.339-.115-.422-.208-.625-.255-.339-.76-.365-1.109-.26-.146-.708-.052-.5-1.036-.984-.313-.193-.99-.49-1.354-.526-.432-.036-.547.26-.885.438-.193.234-.411.182-.609.344-.177.234-.13.661-.099.943h-.016Zm15.042-3.146l.901,1c.339.469.672.943,1.078,1.339.313.26.766.432,1.182.323.276-.094,1.12-.958.432-1.328-.229-.125-.573.047-.781.068.016-.505-.016-.786-.141-1.281-.016-.141-.047-.427-.323-.328-.339.172.057,1.214-.479.901l-.224-.12-.24-.198c-.255.313.047.427.292.693.313.26.557.526.604.953-.771-.505-.818-.932-1.318-1.531-.323-.323-.557-.521-.984-.484v-.005Zm3.083-.703c.198.484.958,1.563,1.484,1.734-.354-.615-.807-1.51-1.484-1.734Zm-52.693,5.219l.641-.063,1.854.557c.516.094,1.021.12,1.359.594-.922.083-.729-.078-1.464-.229-.651-.083-.854.078-1.359.052-.292-.047-.443-.104-.661-.156l-1.906.313c-.505-.026-.615-.375-.917-.49-.307-.188-.583-.094-.854.073-.484.188-.953.516-1.417.849-.875.578-1.88,1.245-2.505,2.094-.438.609-.328.964-.766,1.573-.443.547-1.469,1.068-2.156,1.995-.505.688-.458,1.115-.646,1.349-.13.156-1.01.667-1.214.755-.208.089-.422.109-.557.193-.198.161-.313.391-.438.615l-.703.781c-.182.307-.922,1.448-.964,1.74-.016.505.797.719.37,1.406l-.193.234c-.469.328-.594-.167-.953-.203-.443-.104-1.104.458-1.5.13-.245-.266-.135-.63-.167-.917-.109-.349-.271-.479-.37-.755-.182-.344-.036-1.005-.542-1.677-.26-.411-.557-.526-.792,0l-.167.443c-.281-.62-.125-1.135-.635-1.234-.656-.089-.859.724-1.24,1.188-.953,1.161-1.109,1.031-1.839,1.604l-.969,1.021-.604.411c-.323.318-.536.984-.703,1.427l-.698,2.865c-.156.589-.411,1.547-1.036,1.75-.203.089-.854.073-1.078.021-.224-.12-.391-.323-.615-.375-.214.021-.781.068-1.313-.172-.313-.255-.729-.797-1.031-.911-.302-.12-.583-.094-.87-.068-.354.031-.854.078-1.146.031-.745-.219-1.224-1.328-1.505-1.948-.099-.276-.292-.693-.521-.818-.313-.255-.693.208-1.063.099-.297-.047-.943-.708-1.318-.891-.083-.063-.318-.26-.453-.172-.141.01-.182.302-.24.448-.01.578.151.708.479,1.109.078.063.323.328.125.49-.333.245-.813-.859-1.182-.323-.057.151-.052.219-.115.297l-.141.016-.344-1.193-.052-.5-.479-1.104-.589.552-.141-.63-.198-.49c-.109-.349-.391-.323-.661-.156-.531.411-.901,1.016-1.229,1.26-.406.255-.714.068-.99.161-.339.177-.578.625-.682.995l-.547,2.927c-.479,2.271-.781,2.797-.516,5.219l.286,1.339.271,1.844.24.917.146-.016c-.099-.927-.073-2.651.193-3.536.255-.958.667-1.141.688-2.292l.172.922c.385-.396.359-.682.901-.948.182.344.26.411.38.833.109.344.141.63.318.974.182.344.333.401.505.672.167.203.276.552.375.828.198.49.354,1.266.948,1.427.229-.521.161-1.161.172-1.74.052-.151.078-.583.214-.667.349-.104.49.531.51.745.203.557.354,1.26.693,1.734.354.615.63.521,1.094,1.484l.104-.37c.198.484-.052.87.484,1.177-.031-.281-.089-1.5.031-1.724.057-.151.271-.172.411-.182l.333,2.411c.031.286.141.635.302.839.406.396.87.063,1.052.406l.281,1.271c.24.911.578,2.031.953,2.859.286.62.661,1.453,1.141,1.911.167.198.411.469.688.37s.167-.448.214-.667c.042-.292.177-.375.224-.594.036-.365-.083-.786.099-1.089-.094.443.057.5.099.927.063.568.203,1.203.406,1.76.307.833.531,1.604,1.047,2.349.339.474,1.12,1.047,1.594,1.438.646.661,1.281,1.25,2.063,1.828l.932.635.771.505c.688.37.76-.281,1.188-.323.224.052,1.005.63,1.24.823,1.198,1.115.807.792,1.63,1.797l1.87,1.99c.479.458,1.078,1.339,1.734,1.422l.656.089c.734.151,1.557.438,2.323.224.286-.026.484-.188.609-.344.193-.234.302-.531.589-.557.292.047.974.344,1.271.464.76.365,1.833.984,2.635,1.13.807.141,1.385-.484,1.255-1.047-.203-.557-1.057-1.13-1.51-2.021-.443-.75-.745-1.589-1.25-2.26l-1.156-1.406-.693-1.089-.349-.469c-.083-.135-.208-.63-.234-.844l-.792-2.01c-.359-.688-1.073-.625-1.536-1.589.333.401.964.922,1.411,1.094-.203-.557-.656-1.448-.995-1.922l-.729-.724c.396.323.714.583,1.224.677l.151-.589c.224-.594.432-.682.427-1.401-.057-1.219-1.188-2.984-1.344-4.479-.073-.641.073-1.302.146-1.953l.021-1.151c-.026-.214.104-.37.146-.661l-.016-.786c.099-.443.151-.589.109-1.021l-.344-1.188-.021-.859-.125-1.141c-.094-.854.37-1.255.448-1.839.042-.292-.328-1.047-.484-1.177-.229-.125-.719-.005-.547-.38.177-.375.823.286.99.484.208-.734.047-.865-.094-1.5l-.271-1.844c-.12-.495-.438-.75-.464-.964.052-.224.266-.24.516-.552.255-.313.359-.677.396-1.042l.01-1.224c.078-.578.573-1.344,1.198-1.542.635-.13,1.281.531,1.635.5s.531-.406.651-.635l.823-2.37.141-.016c.354.615.724.724,1.208,1.188l.406.464c.083.068.219-.016.349-.099.255-.313.557-1.49.38-1.833-.104-.276-.417-.536-.526-.885-.026-.214.094-.443.214-.667.167-.448.255-.958.583-1.276.641-.703,1.922-.818,2.703-.24.396.323.344.542.51.745.245.266.604.234.719.651.016.146-.016.505-.063.729.042.427.13.563-.036,1.005-.24.453-.635.776-.797,1.292-.224.599.141.635.052,1.146-.161.521-.547.911-.708,1.432-.182.302-.151.589-.484.833-.271.167-.703.135-.99.161-.422.109-.75.354-1.094.526.016.146.031.286.115.422.12.422.479.391.823.286.563-.12,1.307-.547,1.859-.094.479.458.625,1.813,1.036,2.276.396.328.682.302,1.125.406.297.115.526.24.76.432.552.453.38.828.63,1.167.24.193.443.104.688.37l1.047,1.703.719-.641c.245.266.531.24.563-.125-.021-.208-.135-.63-.234-.839.484.458.521.818.521,1.464.016.141-.042.292.042.427.031.281.38.828.615,1.021.307.188.516.099.786-.068.245-.38.391-1.042.771-1.505.318-.391.948-.516,1.521-1.219-.151-.057-.599-.229-.552-.453.109-.297.542-.333.807-.5.396-.323.703-.854.786-1.365l-.87-.068-.51-.099-.714.068-.703-.516-1.01-.052c.177-.375.297-.599.724-.641.214-.016.51.099.646.016.276-.099.245-.38.448-.542.38-.469.938-.589,1.021-1.172.583.094.714-.063,1.005-.016.599.229.786,1.292,1.063,1.844-.745-.219-.604.411-.62.917.266-.167.583-.552.859-.651l.938-.01c.214-.021.276-.099.484-.188.49-.115.813.214,1.073.62.266-.167.25-.307.078-.583l.354-.031-.203-.552c-.354.031-.432-.036-.536.333q-.307-.188-.672-.229l.26-.24-.016-.141c-.604-.302.089-.51.193-.88.052-.219-.036-.354-.125-.49l.896-.37c.38-.464.703-.135.865-.651.734.151.495-.766,1.047-.958.135-.083.354-.031.5-.042l.615-.271c.286-.026.427-.036.703-.135.271-.167.521-.552.708-.781.125-.156.391-.396.443-.547.052-.219-.042-.422-.083-.781.297.047.51.026.698-.203.198-.161.167-.448-.135-.568l-.354.036.984-.88.193-.88-.276.099.094-.443-.781.073c.125-.156.505-.625.635-.776.333-.245.698-.208.865-.656-.703.135-1.568.792-2.01,1.333l-.698.922.047-.292c-.698.208-.656.635-.922.802l-.135.083c.214-.016-1.219.036-.995.089-.365-.036-.76-.359-1.073-.62-.24-.193-.406-.396-.672-.229l-1.333-1.031c.125-.151.188-.229.031-.359s-.526-.24-.839-.427c-.552-.453-.526-.891-.594-1.531-.063-.568-.135-.563-.328-1.047-.094-.208-.109-.349-.276-.552-.167-.198-.552-.453-.786-.646-.318-.26-.714-.583-1.073-.625-.516-.094-.911.229-1.354.125-.375-.115-.854-.573-1.302-.75-.292-.042-.651-.01-.932.016-.016-.146-.047-.427-.198-.49-.229-.12-.641.057-.927.083-.281.026-.375-.182-.599-.234-.219-.052-1.224-.031-1.354.125-.151.094-.052.297-.036.443l.021-.01Zm50.875-7.432c.583.74,1.625,1.724,2.5,1.859-.26-.406-.479-.458-.797-.719-.464-.323-1.255-.969-1.703-1.141Zm-5.703-2.865l-.177-.344c.297.115.599.234.771.505.094.208.109.349.135.563.047.427.792,1.365,1.229,1.401.151.057.141-.016.281-.026l-.365-1.406c-.167-.198-.37-.109-.615-.375l-1.484-1.734c-.083-.141-.417-.542-.365-.76.125-.156.479-.188.625-.198l-1.359-1.245c-.156-.13-.401-.396-.677-.297-.276.094-.38.464-.5.688-.12.229-.313.464-.286.677.099.276.422.604.589.807l1.26,1.036c.318.333.484.536.932.714l.005-.005Zm18.464-.151c-.188-1.057-.875-2.078-1.677-2.865l-1.26-1.036c-.49-.531-1.016-1.422-1.734-2.073-.786-.651-1.38-.813-2.083-1.323l-1.193-1.047-2.125-1.75c-.552-.453-1.208-1.182-1.625-1.719-.427-.609-.307-.839-.547-1.104-.167-.198-.766-.432-1.063-.479l.115-.297-.531-.24c.297-.604-.115-.422-.531-.958-.167-.203-.198-.484-.458-.896-.406-.464-.953-.849-1.49-1.156l-2.594-1.422c-.839-.427-1.984-1.047-2.927-1.104-.719-.005-1.177.391-1.885.526-.63.13-2,.109-2.438.724-.443.542.672,1.521,1.073,1.917l1.125,1.12c.323.328.417.536.745.938.318.26.932.635,1.188.974.25.339-.167.448.167.917.26.411.896.927,1.083,1.344.104.276.146.703.385.901.229.12.495-.047.708-.068.349-.099,1.375-.625,1.682-.438.302.193,1.354,1.245,1.599,1.51.156.13.479.458.432.682.036.354-1.083-.047-.818.432.089.135.776.505,1.01.698l.875.786,1.016.771c.24.193.5.599.729.724.448.177.677-.349,1.068-.094.755.359,1.302,1.391,2.089,2.042.536.307.667.224,1.12.401.38.182.625.448,1.01.698.609.307.656.089,1.365.672.948.776,1.75,1.568,2.563,2.427.323.333,1.12,1.052,1.49,1.161l.214-.021.818-.432s.073-.005.063-.078c.047-.219.016-.505.068-.724.047-.219.182-.302.224-.594.047-.219,0-.646.203-.74.224-.078.615.245.766.297l-.01-.005Zm-17.375-18.495c-.031-.281-.109-.349-.214-.625-.427-.609-.896-1-1.568-1.224-.224-.052-.885-.208-1.005.016-.182.302.589.813.818.932.24.193.536.313.776.505.464.255.682.307,1.198.401l-.005-.005Zm-27.891-5.979c.943.063,1.297.031,2.198.38.823.286,1.302.745,2.245.802l-1.057-1.125.604-.411c-.318-.26-.458-.25-.766-.438-.156-.13-.172-.271-.328-.401l-.646.057c-.417.109-.766.214-1.25.401-.422.104-.979.224-.995.734h-.005Zm4.318-1.969c-.104.37-.453.474-.786.719.078.063.083.135.167.198.229.125,1.396.307,1.688.354.724.005.745-.427,1.594-.573l1.057-.167c1-.089,2.359-.141,3.245-.578-.339-.474-.552-.453-1.073-.625-.813-.214-1.682-.281-2.516.01-.766.214-.734.5-1.734.589l-1.641.073Z"/><g><rect class="cls-3" x="6.557" y="106.448" width="255.599" height="65.438"/><g class="cls-7"><path class="cls-3" d="m6.557,106.448h256.672v66.432H6.557v-66.432Z"/></g></g><path class="cls-4" d="m32.058,156.602h9.385v-39.068h-9.385v39.068Z"/><path class="cls-4" d="m46.379,156.602h9.385v-39.068h-9.385v39.068Z"/><path class="cls-4" d="m60.699,156.602h9.385v-39.068h-9.385v39.068Z"/><path class="cls-4" d="m82.317,156.602h9.385v-31.057h8.943v-8.01h-27.271v8.01h8.943v31.057Z"/><path class="cls-4" d="m103.935,156.602h13.333c11.964,0,18.328-7.135,18.328-19.536s-6.307-19.531-18.219-19.531h-13.443v39.068Zm9.109-7.516v-24.094h4.063c6.089,0,9.109,4.448,9.109,12.073s-3.021,12.021-9.109,12.021h-4.063Z"/><path class="cls-4" d="m140.247,156.602h4.557v-31.609h.109l10.37,31.609h4.776l10.37-31.661h.109v31.661h4.552v-38.688h-6.693l-10.703,33.198h-.052l-10.703-33.198h-6.693v38.688Z"/><path class="cls-4" d="m193.526,157.592c7.682,0,12.292-4.667,12.292-12.51v-27.167h-4.557v27.109c0,5.323-2.906,8.505-7.734,8.505-4.885,0-7.849-3.182-7.849-8.448v-27.167h-4.552v27.167c0,7.844,4.609,12.51,12.401,12.51Z"/><path class="cls-4" d="m211.849,156.602h4.557v-32.76h.109l12.563,32.76h6.75v-38.688h-4.609v32.76h-.109l-12.51-32.76h-6.75v38.688Z"/><path class="cls-4" d="m53.782,65.916l-3.729-7.708,1.917-2.271.375.333c-.167.224-.286.427-.354.604-.073.167-.078.333-.021.5.052.167.167.349.333.542.177.182.417.396.708.646l3.979,3.375c.333.281.609.49.833.625.219.141.417.224.583.25.177.016.344-.031.5-.146.167-.125.354-.302.563-.542l.375.333-2.792,3.292-.375-.333c.193-.234.333-.443.417-.625.083-.177.104-.344.063-.5-.031-.167-.125-.344-.292-.542-.156-.193-.385-.422-.688-.688l-4.708-4-.083.104,4.125,8.604-.188.229-9.104-2.75-.042.063,4.625,3.938c.333.281.604.49.813.625.219.141.422.219.604.229.177.016.344-.031.5-.146.151-.109.339-.292.563-.542l.375.333-2.396,2.833-.375-.333c.177-.234.313-.438.396-.604.083-.177.109-.354.083-.521-.031-.177-.125-.359-.292-.542-.167-.177-.401-.401-.708-.667l-4.125-3.5c-.276-.234-.521-.422-.729-.563-.208-.135-.396-.214-.563-.229-.167-.026-.323.01-.479.104-.167.083-.344.24-.542.458l-.375-.333,2.063-2.417,8.125,2.542.042-.063Z"/><path class="cls-4" d="m57.603,50.483c.573-.526,1.198-.917,1.875-1.167.677-.25,1.359-.359,2.042-.333.693.016,1.359.167,2,.458.651.281,1.229.698,1.729,1.25.5.531.854,1.12,1.063,1.771.208.656.281,1.323.229,2-.042.682-.224,1.349-.542,2-.323.656-.76,1.24-1.313,1.75-.583.531-1.219.927-1.896,1.188-.667.25-1.344.37-2.021.354-.682-.01-1.333-.146-1.958-.396-.635-.26-1.208-.656-1.708-1.188-.5-.552-.859-1.167-1.083-1.833-.234-.677-.323-1.365-.271-2.063.042-.693.219-1.365.521-2.021.307-.651.75-1.24,1.333-1.771Zm6.583,7.208c.427-.385.75-.818.958-1.292.208-.469.302-.958.292-1.458-.016-.5-.141-1.005-.375-1.521-.24-.526-.583-1.042-1.042-1.542-.49-.526-.99-.938-1.5-1.229-.516-.302-1.031-.49-1.542-.563-.5-.083-1-.042-1.5.125-.5.156-.964.427-1.396.813-.427.391-.74.828-.938,1.313-.193.474-.276.974-.25,1.5.031.516.167,1.042.417,1.583s.62,1.078,1.104,1.604c.458.5.938.891,1.438,1.167.5.281,1,.448,1.5.5.5.057.984,0,1.458-.167.484-.167.943-.443,1.375-.833Z"/><path class="cls-4" d="m69.307,53.884l-.292-.396c.26-.208.464-.385.604-.542.151-.167.24-.323.271-.479.026-.167,0-.333-.083-.5-.073-.177-.198-.396-.375-.646l-3.646-5c-.177-.26-.339-.464-.479-.604-.135-.135-.276-.219-.417-.25-.151-.042-.313-.026-.479.042-.167.073-.365.188-.604.354l-.292-.417,3.771-2.75c.641-.458,1.307-.776,2-.958.708-.193,1.401-.24,2.083-.146.677.083,1.318.307,1.917.667.594.365,1.115.849,1.563,1.458.427.583.714,1.203.854,1.854.151.641.167,1.281.042,1.917-.115.625-.354,1.224-.729,1.792-.375.573-.875,1.083-1.5,1.542l-4.208,3.063Zm-3.021-9.646c-.125.083-.135.188-.042.313l4.229,5.813c.594.823,1.427.844,2.5.063.969-.708,1.505-1.542,1.604-2.5.094-.969-.271-2.026-1.104-3.167-.432-.594-.891-1.073-1.375-1.438-.474-.359-.969-.604-1.479-.729-.5-.125-1.01-.13-1.521-.021-.5.099-.984.323-1.458.667l-1.354,1Z"/><path class="cls-4" d="m78.244,40.904c.401-.234.729-.458.979-.667.26-.219.443-.427.542-.625.094-.208.13-.417.104-.625-.016-.208-.094-.427-.229-.667l.417-.229,1.833,3.125-.417.229c-.125-.219-.271-.396-.438-.521-.156-.135-.349-.214-.583-.229-.24-.026-.51.021-.813.146-.307.115-.677.292-1.104.542l1.5,2.583c.151.25.302.438.458.563.167.125.354.203.563.229.208.016.443-.026.708-.125.276-.094.594-.255.958-.479.401-.234.719-.464.958-.688.25-.234.427-.479.542-.729.125-.25.172-.521.146-.813-.031-.292-.099-.625-.208-1l.417-.271,1.188,2.375-7.125,4.167-.25-.438c.25-.167.443-.313.583-.438.135-.125.229-.26.271-.417.042-.167.026-.339-.042-.521-.073-.177-.182-.401-.333-.667l-3.125-5.333c-.167-.276-.313-.484-.438-.625-.125-.151-.25-.25-.375-.292-.135-.052-.292-.052-.458,0-.177.057-.396.146-.646.271l-.25-.417,6.625-3.875,1.292,1.938-.417.229c-.224-.26-.448-.464-.667-.604-.208-.135-.438-.208-.688-.208-.25-.01-.531.036-.833.146-.307.115-.646.281-1.021.5l-1.458.854c-.135.083-.167.188-.083.313l1.917,3.292Z"/><path class="cls-4" d="m94.449,38.868l-7.771,3.667-.208-.458c.26-.151.469-.281.625-.396.167-.109.271-.234.313-.375.052-.151.052-.323,0-.521-.042-.193-.125-.427-.25-.708l-2.646-5.583c-.135-.292-.26-.51-.375-.667-.125-.151-.25-.26-.375-.333-.135-.068-.292-.083-.458-.042s-.385.12-.667.229l-.208-.458,3.646-1.729.208.458c-.234.141-.422.266-.563.375-.151.099-.24.224-.271.375-.026.141-.01.313.042.521.057.198.156.438.292.729l2.458,5.188c.151.333.313.594.479.771.177.182.38.292.604.333.219.031.469.01.75-.063.292-.083.646-.219,1.063-.417.469-.219.844-.427,1.125-.625.292-.193.505-.401.646-.625.151-.234.234-.505.25-.813.01-.302-.031-.667-.125-1.083l.458-.208.958,2.458Z"/><path class="cls-4" d="m105.823,30.534c.208.682.323,1.292.354,1.833.026.542-.052,1.031-.229,1.458-.182.432-.474.813-.875,1.146-.406.323-.938.583-1.604.792-.625.198-1.198.307-1.708.333-.5.031-.953-.047-1.354-.229-.406-.177-.76-.469-1.063-.875-.292-.417-.542-.958-.75-1.625l-1.063-3.354c-.193-.625-.359-1.094-.5-1.417-.135-.333-.302-.552-.5-.667-.135-.068-.297-.094-.479-.083-.193.016-.427.063-.708.146l-.146-.479,4.313-1.375.146.479c-.292.099-.521.198-.688.292-.156.083-.266.203-.333.354-.073.208-.073.49,0,.833.083.333.219.813.417,1.438l1.104,3.458c.125.417.281.786.479,1.104.208.307.448.542.729.708.276.156.594.245.958.271.359.016.776-.052,1.25-.208.844-.26,1.401-.693,1.667-1.292.26-.609.25-1.375-.042-2.292l-.958-3.063c-.24-.734-.453-1.281-.646-1.646-.182-.375-.375-.625-.583-.75-.167-.068-.344-.089-.521-.063-.167.031-.385.083-.646.167l-.146-.479,3.667-1.167.146.479c-.281.083-.5.177-.667.271-.156.099-.26.229-.313.396-.057.24-.052.552.021.938.083.375.234.911.458,1.604l.813,2.563Z"/><path class="cls-4" d="m117.488,32.292l-7.833-6.896-.063.021,1.125,5.542c.083.448.167.792.25,1.042.094.24.198.417.313.542.125.125.271.198.438.208.177,0,.406-.026.688-.083l.104.5-3.5.708-.104-.5c.302-.052.542-.125.708-.208.177-.094.313-.219.396-.375.083-.151.115-.344.104-.583-.016-.25-.063-.583-.146-1l-1.083-5.271c-.073-.375-.146-.672-.229-.896-.083-.234-.182-.406-.292-.521-.125-.125-.276-.198-.458-.229-.177-.026-.417-.021-.708.021l-.104-.479,2.583-.521,7.229,6.417h.063l-1.042-5.146c-.083-.417-.177-.75-.271-1-.083-.25-.188-.438-.313-.563-.115-.125-.26-.188-.438-.188-.167-.01-.391,0-.667.042l-.104-.479,3.5-.708.104.479c-.307.083-.552.167-.729.25-.167.083-.292.203-.375.354-.083.156-.12.354-.104.604.026.25.073.578.146.979l1.583,7.771-.771.167Z"/><path class="cls-4" d="m123.034,28.874c.042.448.094.792.167,1.042.068.25.156.448.271.583.125.125.276.203.458.229.193.016.443.01.75-.021l.063.5-4.25.521-.063-.5c.302-.052.542-.115.708-.188.177-.068.318-.172.417-.313.094-.151.146-.344.146-.583.01-.25-.01-.583-.063-1l-.646-5.354c-.042-.375-.099-.677-.167-.917-.057-.234-.141-.417-.25-.542-.115-.135-.26-.229-.438-.271-.167-.042-.396-.047-.688-.021l-.063-.479,4-.479.063.479c-.266.042-.479.104-.646.188s-.292.208-.375.375c-.073.156-.104.365-.104.625,0,.25.026.573.083.958l.625,5.167Z"/><path class="cls-4" d="m135.128,22.914l-.521.021c-.042-.385-.12-.708-.229-.958-.099-.26-.245-.458-.438-.583-.182-.135-.411-.234-.688-.292-.281-.052-.615-.068-1-.042-.323.016-.583.036-.792.063-.198.016-.344.042-.438.083-.099.042-.167.094-.208.146-.031.042-.042.104-.042.188l.313,7.104c.01.292.047.542.104.75.052.198.135.354.25.479.125.125.302.219.542.271.234.042.531.063.896.063l.021.5-5.021.229-.021-.5c.375-.026.672-.073.896-.146.219-.083.385-.193.5-.333.125-.135.198-.302.229-.5.026-.208.031-.458.021-.75l-.313-7.104c0-.083-.016-.146-.042-.188-.031-.052-.099-.094-.208-.125-.099-.026-.229-.042-.396-.042-.167-.01-.391-.01-.667,0-.349.016-.677.042-.979.083-.292.042-.542.135-.75.271-.208.141-.375.349-.5.625-.115.266-.167.635-.167,1.104l-.5.021-.104-2.542,10.042-.438.208,2.542Z"/><path class="cls-4" d="m139.096,25.145c.469.031.875.021,1.208-.021s.589-.115.771-.229c.193-.125.339-.276.438-.458.094-.193.151-.422.167-.688l.479.021-.188,3.625-.479-.021c.01-.26-.01-.49-.063-.688-.057-.193-.182-.359-.375-.5-.182-.151-.432-.26-.75-.333-.323-.083-.729-.135-1.229-.167l-.146,3c-.016.292.005.536.063.729.068.198.188.365.354.5.167.125.385.224.667.292.276.057.625.094,1.042.104.469.031.875.016,1.208-.042.333-.052.609-.151.833-.292.234-.151.422-.354.563-.604.151-.26.276-.589.375-.979l.479.021-.313,2.625-8.229-.417.021-.5c.302,0,.552-.01.75-.042.193-.026.344-.089.458-.188.109-.109.188-.26.229-.458.052-.193.089-.443.104-.75l.292-6.188c.01-.302.005-.547-.021-.729-.016-.193-.063-.344-.146-.458-.083-.125-.219-.208-.396-.25-.167-.052-.396-.094-.688-.125l.021-.5,7.688.375.021,2.313-.479-.021c-.042-.344-.12-.63-.229-.854-.115-.234-.271-.422-.479-.563-.198-.151-.453-.26-.771-.333-.307-.068-.682-.109-1.125-.125l-1.688-.083c-.156-.01-.24.057-.25.208l-.188,3.792Z"/><path class="cls-4" d="m145.131,31.069l.083-.5c.318.031.583.036.792.021.219-.01.396-.063.521-.146.135-.083.24-.214.313-.396.068-.177.125-.427.167-.75l.917-6.125c.042-.302.052-.552.042-.75,0-.193-.036-.354-.104-.479-.073-.125-.198-.219-.375-.292-.167-.068-.385-.13-.646-.188l.063-.5,4.604.688c.792.125,1.5.37,2.125.729.635.365,1.167.813,1.583,1.354.427.542.729,1.156.896,1.833.167.667.193,1.385.083,2.146-.115.708-.344,1.349-.688,1.917-.333.557-.766,1.016-1.292,1.375-.531.359-1.135.609-1.813.75-.667.151-1.375.172-2.125.063l-5.146-.75Zm4.604-9.021c-.156-.01-.245.057-.271.208l-1.063,7.104c-.141,1,.443,1.599,1.75,1.792,1.193.177,2.156-.042,2.896-.667.75-.625,1.229-1.625,1.438-3,.109-.734.115-1.396.021-1.979-.083-.594-.266-1.115-.542-1.563-.266-.443-.615-.802-1.042-1.083-.432-.292-.938-.479-1.521-.563l-1.667-.25Z"/><path class="cls-4" d="m168.231,36.212l-3.646-9.792h-.063l-1.625,5.417c-.125.432-.208.771-.25,1.021s-.042.458,0,.625.135.292.292.375c.151.094.359.193.625.292l-.146.479-3.396-1.042.146-.479c.292.083.531.135.729.146.193,0,.359-.047.5-.146.151-.094.276-.25.375-.458.109-.219.219-.531.333-.938l1.563-5.167c.109-.359.177-.656.208-.896.042-.25.042-.458,0-.625s-.141-.297-.292-.396c-.156-.109-.365-.214-.625-.313l.146-.479,2.5.75,3.313,9.104.063.021,1.521-5.021c.125-.417.208-.755.25-1.021.042-.26.042-.469,0-.625-.042-.151-.146-.276-.313-.375-.156-.094-.354-.188-.604-.271l.146-.479,3.417,1.021-.146.479c-.323-.068-.578-.104-.771-.104-.198-.01-.365.031-.5.125-.141.083-.26.245-.354.479-.099.224-.208.531-.333.917l-2.292,7.604-.771-.229Z"/><path class="cls-4" d="m177.95,35.871l-3.271-1.375c-.281.281-.521.531-.729.75-.208.208-.385.396-.521.563-.141.156-.25.292-.333.417s-.141.224-.167.292c-.099.24-.099.427,0,.583.109.151.339.297.688.438l-.188.458-2.979-1.25.188-.458c.208.057.385.094.542.104.167.016.313.01.438-.021.125-.042.25-.104.375-.188s.26-.193.417-.333l6.521-6.646.521.229-.104,8.083c.01.51.026.938.042,1.271.01.344.052.615.125.813.083.193.193.339.333.438.135.094.313.193.521.292l-.208.479-4-1.667.208-.479c.443.177.76.26.958.25.193-.016.323-.115.396-.292.042-.083.068-.167.083-.25.026-.083.047-.167.063-.25.01-.083.021-.182.021-.292.01-.115.021-.26.021-.438l.042-1.521Zm-2.771-1.896l2.792,1.167.125-4.167-2.917,3Z"/><path class="cls-4" d="m192.504,38.74l-.479-.271c.167-.344.26-.651.292-.917.042-.276.01-.521-.083-.729-.083-.219-.24-.422-.458-.604-.208-.193-.479-.38-.813-.563-.292-.151-.531-.271-.708-.354-.182-.083-.328-.13-.438-.146-.099-.026-.177-.026-.229,0-.057.031-.104.083-.146.167l-3.354,6.25c-.141.26-.245.49-.313.688-.057.193-.063.375-.021.542.042.177.146.344.313.5.177.167.422.344.729.542l-.229.438-4.417-2.375.229-.438c.344.167.63.271.854.313.234.052.438.047.604-.021.167-.057.313-.161.438-.313.135-.156.276-.365.417-.625l3.354-6.25c.042-.083.063-.151.063-.208,0-.052-.042-.115-.125-.188-.073-.068-.177-.151-.313-.25-.141-.094-.333-.208-.583-.333-.307-.167-.599-.302-.875-.417-.266-.109-.531-.156-.792-.146-.25,0-.5.094-.75.271-.24.167-.469.453-.688.854l-.458-.229,1.208-2.25,8.854,4.75-1.083,2.313Z"/><path class="cls-4" d="m193.05,45.283c-.24.375-.411.677-.521.917-.115.234-.161.443-.146.625.01.177.083.333.208.458.135.135.333.297.583.479l-.271.417-3.625-2.292.271-.417c.26.135.484.234.667.292.193.068.365.073.521.021.167-.057.333-.177.5-.354.167-.193.359-.464.583-.813l2.896-4.542c.208-.318.359-.589.458-.813.094-.234.135-.438.125-.604,0-.167-.057-.318-.167-.458-.115-.135-.281-.292-.5-.458l.271-.417,3.396,2.167-.271.417c-.25-.135-.469-.229-.646-.271-.182-.042-.354-.026-.521.042-.156.073-.313.208-.479.417-.156.198-.333.458-.542.792l-2.792,4.396Z"/><path class="cls-4" d="m204.541,43.772c.625.474,1.115,1.031,1.479,1.667.359.625.594,1.281.708,1.958.109.667.073,1.339-.104,2.021-.167.677-.474,1.318-.917,1.917-.448.583-.969,1.031-1.563,1.354-.599.333-1.245.531-1.938.604-.682.068-1.375.005-2.083-.188-.698-.198-1.349-.521-1.958-.979-.615-.474-1.104-1.021-1.479-1.646-.365-.625-.599-1.281-.708-1.958-.115-.667-.099-1.333.042-2,.151-.667.448-1.292.896-1.875.443-.594.969-1.063,1.583-1.396.625-.344,1.276-.552,1.958-.625.693-.083,1.396-.026,2.104.167.708.182,1.365.51,1.979.979Zm-5.917,7.771c.469.344.948.583,1.438.708.484.125.969.13,1.458.021.5-.099.984-.313,1.458-.646.469-.323.906-.75,1.313-1.292.427-.573.75-1.135.958-1.688.208-.552.302-1.089.292-1.604-.016-.526-.146-1.021-.396-1.479-.24-.458-.594-.859-1.063-1.208-.458-.359-.948-.594-1.458-.708-.5-.109-1.01-.104-1.521.021-.5.125-.995.365-1.479.708-.49.333-.948.786-1.375,1.354-.406.542-.703,1.083-.896,1.625-.198.542-.281,1.063-.25,1.563.042.5.188.969.438,1.417.26.443.625.844,1.083,1.208Z"/><path class="cls-4" d="m209.501,62.01l1.188-10.354-.042-.042-3.917,4.104c-.307.318-.536.573-.688.771-.156.208-.25.396-.292.563-.042.177-.016.344.083.5.094.151.24.323.438.521l-.354.354-2.563-2.458.354-.354c.219.193.417.339.583.438.167.094.333.13.5.104.177-.016.359-.099.542-.25.193-.156.438-.38.729-.688l3.729-3.896c.26-.26.464-.49.604-.688.151-.208.24-.385.271-.542.026-.167,0-.333-.083-.5s-.224-.354-.417-.563l.354-.375,1.896,1.813-1.167,9.625.042.042,3.646-3.792c.292-.307.51-.573.667-.792.151-.208.24-.385.271-.542.042-.167.01-.323-.083-.479-.099-.151-.245-.323-.438-.521l.354-.375,2.583,2.458-.354.375c-.24-.208-.438-.365-.604-.458-.167-.083-.344-.12-.521-.104-.167.01-.354.094-.563.25-.198.167-.432.396-.708.688l-5.479,5.729-.563-.563Z"/><path class="cls-4" d="m214.142,62.177l.333.375c-.281.307-.479.635-.604.979-.125.333-.188.672-.188,1.021.01.344.083.688.208,1.021.135.333.333.646.583.938.427.51.885.813,1.375.896.484.083.927-.052,1.333-.396.167-.156.292-.323.375-.5.094-.167.151-.385.167-.646.01-.25-.016-.542-.083-.875-.073-.323-.177-.719-.313-1.188-.182-.583-.313-1.083-.396-1.5-.073-.417-.094-.781-.063-1.104.042-.333.13-.625.271-.875.151-.26.354-.5.604-.708.318-.276.651-.469,1-.583.359-.109.719-.146,1.083-.104.375.042.729.156,1.063.333.344.182.667.432.958.75.25.307.438.625.563.958s.193.724.208,1.167l.688-.125.208.229-1.917,1.833-.333-.375c.417-.625.625-1.208.625-1.75.01-.542-.167-1.026-.542-1.458-.365-.417-.75-.651-1.167-.708-.406-.068-.781.052-1.125.354-.156.125-.271.281-.354.458-.073.167-.115.365-.125.583-.016.208,0,.469.042.771.052.292.135.641.25,1.042.208.677.359,1.26.458,1.75.094.5.13.927.104,1.292-.031.359-.12.672-.271.938-.141.26-.344.505-.604.729-.323.276-.682.469-1.083.583-.391.125-.792.151-1.208.083-.406-.073-.807-.229-1.208-.479-.406-.24-.781-.557-1.125-.958-.333-.391-.578-.781-.729-1.167-.156-.391-.24-.854-.25-1.396l-.75.125-.188-.208,2.125-2.104Z"/><path class="cls-4" d="m99.925,240.021c-.141.417-.24.76-.292,1.021-.042.25-.042.458,0,.625.052.177.156.318.313.417.167.094.396.198.688.313l-.167.479-4.063-1.417.167-.479c.292.099.531.156.729.167.193.016.365-.021.521-.104.151-.083.281-.234.396-.458.109-.219.234-.531.375-.938l1.75-5.083c.125-.359.208-.656.25-.896.052-.234.063-.438.021-.604s-.141-.302-.292-.417c-.141-.109-.349-.219-.625-.333l.167-.479,3.813,1.333-.167.479c-.25-.083-.474-.125-.667-.125-.182,0-.344.057-.479.167-.141.099-.266.266-.375.5-.115.24-.229.536-.354.896l-1.708,4.938Z"/><path class="cls-4" d="m105.269,241.674c-.125.432-.208.781-.25,1.042-.031.25-.016.458.042.625.068.167.188.297.354.396.167.094.396.193.688.292l-.146.479-4.125-1.208.146-.479c.292.073.531.115.729.125.193,0,.359-.047.5-.146.135-.094.255-.255.354-.479.109-.219.219-.526.333-.917l1.521-5.188c.094-.359.156-.667.188-.917.042-.25.042-.448,0-.604-.042-.151-.141-.276-.292-.375-.156-.109-.37-.214-.646-.313l.146-.479,3.875,1.125-.146.479c-.266-.068-.49-.094-.667-.083-.182,0-.344.057-.479.167-.141.115-.266.292-.375.542-.099.24-.198.542-.292.917l-1.458,5Z"/><path class="cls-4" d="m110.677,243.058c-.099.432-.161.781-.188,1.042-.031.266-.01.479.063.646.068.167.188.292.354.375.177.083.422.167.729.25l-.125.479-4.188-.979.125-.479c.302.057.547.083.729.083.193-.01.359-.068.5-.167.135-.109.25-.276.333-.5.094-.234.193-.552.292-.958l1.25-5.25c.083-.359.13-.656.146-.896.026-.25.01-.448-.042-.604-.042-.167-.146-.297-.313-.396-.156-.094-.37-.188-.646-.271l.125-.5,3.938.938-.125.5c-.281-.052-.51-.068-.688-.042-.182.016-.344.083-.479.208-.125.115-.24.292-.333.542-.083.24-.167.542-.25.917l-1.208,5.063Z"/><path class="cls-4" d="m123.898,240.257l-.521-.104c.042-.385.031-.714-.021-.979-.057-.26-.167-.479-.333-.646-.156-.177-.354-.323-.604-.438-.25-.109-.573-.193-.958-.25-.307-.052-.563-.089-.771-.104-.208-.026-.37-.026-.479,0-.115.016-.188.042-.229.083s-.073.104-.083.188l-1.125,7c-.057.292-.078.542-.063.75.01.208.063.385.146.521.094.151.25.276.458.375.219.094.51.177.875.25l-.083.5-4.958-.792.083-.5c.375.042.672.047.896.021.234-.026.422-.089.563-.188.151-.109.26-.26.333-.458.068-.193.13-.438.188-.729l1.125-7c.01-.083.005-.151-.021-.208-.016-.052-.073-.104-.167-.146-.083-.052-.203-.104-.354-.146-.156-.042-.37-.083-.646-.125-.349-.052-.677-.089-.979-.104-.292-.026-.557.01-.792.104-.24.099-.438.266-.604.5-.167.24-.302.594-.396,1.063l-.5-.083.417-2.521,9.917,1.625-.313,2.542Z"/><path class="cls-4" d="m127.763,248.338l.021-.5c.333-.01.604-.031.813-.063.208-.042.365-.109.479-.208.125-.109.208-.255.25-.438.052-.193.089-.448.104-.771l.167-6.188c0-.318-.016-.568-.042-.75-.031-.193-.083-.344-.167-.458-.083-.125-.219-.208-.396-.25-.182-.042-.411-.073-.688-.104v-.5l4.667.125c.792.031,1.521.182,2.188.458.677.281,1.255.661,1.729,1.146.484.49.854,1.057,1.104,1.708.26.656.38,1.365.354,2.125-.016.724-.161,1.385-.438,1.979-.266.599-.641,1.115-1.125,1.542-.474.417-1.036.745-1.688.979-.656.219-1.365.318-2.125.292l-5.208-.125Zm3.5-9.5c-.156,0-.24.078-.25.229l-.188,7.188c-.031,1.016.615,1.536,1.938,1.563,1.208.042,2.146-.292,2.813-1s1.01-1.76,1.042-3.167c.026-.734-.042-1.396-.208-1.979-.156-.583-.391-1.073-.708-1.479-.323-.401-.719-.714-1.188-.938-.458-.234-.979-.359-1.563-.375l-1.688-.042Z"/><path class="cls-4" d="m142.488,242.746c.469-.042.859-.094,1.167-.167.318-.083.568-.193.75-.333.177-.135.302-.302.375-.5.068-.208.094-.443.083-.708l.479-.021.229,3.604-.479.021c-.016-.26-.063-.484-.146-.667-.083-.177-.229-.323-.438-.438-.198-.125-.453-.208-.771-.25-.323-.042-.729-.042-1.229,0l.208,2.979c.026.292.073.531.146.708.083.182.214.328.396.438.193.115.427.182.708.208.276.031.625.031,1.042,0,.469-.026.865-.083,1.188-.167.318-.094.583-.229.792-.396.219-.177.385-.406.5-.688.109-.276.193-.609.25-1l.5-.042v2.646l-8.229.563-.042-.5c.302-.026.547-.068.729-.125.193-.052.339-.135.438-.25.109-.125.172-.281.188-.479.026-.208.026-.464,0-.771l-.417-6.167c-.031-.318-.063-.568-.104-.75-.042-.177-.115-.323-.208-.438-.099-.109-.24-.177-.417-.208-.182-.026-.417-.031-.708-.021l-.042-.5,7.667-.542.292,2.333-.479.042c-.083-.344-.198-.63-.333-.854-.125-.219-.302-.385-.521-.5-.208-.125-.479-.198-.813-.229-.323-.042-.703-.047-1.146-.021l-1.667.125c-.156.016-.224.099-.208.25l.271,3.813Z"/><path class="cls-4" d="m158.47,246.464l-8.479,1.333-.083-.5c.292-.068.526-.135.708-.208.177-.068.318-.156.417-.271.094-.125.146-.281.146-.479,0-.208-.021-.464-.063-.771l-.958-6.104c-.042-.318-.099-.568-.167-.75-.057-.177-.141-.318-.25-.417-.115-.094-.26-.151-.438-.167-.177-.01-.406,0-.688.042l-.083-.5,3.979-.625.083.5c-.266.057-.479.12-.646.188-.167.057-.292.156-.375.292-.073.125-.104.292-.104.5,0,.198.026.458.083.792l.875,5.646c.052.375.135.682.25.917.125.224.281.385.479.479.193.083.443.125.75.125.302,0,.688-.031,1.146-.104.5-.083.917-.172,1.25-.271.333-.109.594-.25.792-.417.208-.177.359-.417.458-.708.094-.292.167-.646.208-1.063l.5-.063.208,2.604Z"/><path class="cls-4" d="m168.722,241.77c.083.323.167.578.25.771.083.198.188.333.313.417.135.083.302.125.5.125.193-.01.443-.047.75-.104l.125.479-4.167,1.063-.125-.479c.292-.083.521-.167.688-.25.177-.094.302-.214.375-.354.083-.135.115-.302.104-.5-.016-.193-.057-.438-.125-.729l-.729-2.792-5.208,1.333.708,2.708c.083.323.167.578.25.771.083.198.188.333.313.417s.281.125.479.125c.193,0,.443-.031.75-.104l.125.479-4.167,1.083-.125-.479c.292-.094.521-.188.688-.271.177-.094.302-.214.375-.354.083-.135.115-.302.104-.5-.016-.193-.057-.438-.125-.729l-1.563-5.979c-.068-.318-.146-.563-.229-.729-.083-.177-.177-.302-.292-.375-.125-.083-.276-.125-.458-.125-.177,0-.406.031-.688.083l-.125-.479,3.917-1,.125.479c-.281.083-.495.167-.646.25-.156.083-.266.198-.333.333-.057.125-.078.292-.063.5.026.198.083.453.167.771l.646,2.479,5.208-1.333-.667-2.542c-.073-.318-.146-.563-.229-.729-.073-.177-.167-.313-.292-.396s-.281-.115-.458-.104c-.182,0-.411.031-.688.083l-.125-.479,3.896-1.021.125.479c-.266.083-.474.177-.625.271-.156.083-.266.198-.333.333-.057.125-.078.292-.063.5.01.198.063.453.146.771l1.521,5.833Z"/><path class="cls-4" d="m173.986,239.572c.135.417.26.745.375.979.125.224.255.391.396.5.151.099.318.135.5.104.193-.026.438-.083.729-.167l.167.479-4.063,1.417-.167-.479c.292-.125.521-.234.688-.333.167-.094.276-.229.333-.396.052-.167.063-.365.021-.604-.042-.234-.135-.552-.271-.958l-1.75-5.083c-.125-.359-.24-.651-.354-.875-.125-.219-.25-.38-.375-.479-.125-.094-.276-.146-.458-.146-.193,0-.427.042-.708.125l-.167-.479,3.813-1.333.167.479c-.25.115-.453.224-.604.333-.141.115-.229.26-.271.438-.042.167-.036.375.021.625.052.25.146.557.271.917l1.708,4.938Z"/></g></svg>